<svg width="512" height="512" viewBox="0 0 512 512" fill="none" xmlns="http://www.w3.org/2000/svg">
<path d="M441.157 322.876L392.491 275.49C389.172 272.247 383.872 272.256 380.561 275.507L298.667 355.806V8.533C298.667 3.823 294.844 0 290.134 0H221.867C217.157 0 213.334 3.823 213.334 8.533V355.806L131.44 275.507C128.129 272.264 122.838 272.256 119.519 275.49L70.853 322.876C69.198 324.48 68.267 326.682 68.267 328.986C68.267 331.29 69.206 333.492 70.853 335.096L250.053 509.577C251.708 511.19 253.859 512 256.001 512C258.151 512 260.293 511.189 261.957 509.577L441.157 335.096C442.804 333.492 443.734 331.29 443.734 328.986C443.734 326.682 442.804 324.48 441.157 322.876Z" fill="black"/>
</svg>
