<svg width="512" height="512" viewBox="0 0 512 512" fill="none" xmlns="http://www.w3.org/2000/svg">
<g clip-path="url(#clip0)">
<path d="M189.124 441.156L236.51 392.49C239.753 389.171 239.744 383.871 236.493 380.56L156.194 298.666L503.467 298.666C508.177 298.666 512 294.843 512 290.133L512 221.866C512 217.156 508.177 213.333 503.467 213.333L156.194 213.333L236.493 131.439C239.736 128.128 239.744 122.837 236.51 119.518L189.124 70.8525C187.52 69.1975 185.318 68.2665 183.014 68.2665C180.71 68.2665 178.508 69.2055 176.904 70.8525L2.42252 250.052C0.809509 251.707 -0.000488281 253.858 -0.000488281 256C-0.000488281 258.15 0.810516 260.292 2.42252 261.956L176.904 441.156C178.508 442.803 180.71 443.733 183.014 443.733C185.318 443.733 187.52 442.803 189.124 441.156Z" fill="black"/>
</g>
<defs>
<clipPath id="clip0">
<rect width="512" height="512" fill="white"/>
</clipPath>
</defs>
</svg>
