<svg width="512" height="512" viewBox="0 0 512 512" fill="none" xmlns="http://www.w3.org/2000/svg">
<g clip-path="url(#clip0)">
<path d="M322.876 70.8435L275.49 119.509C272.247 122.828 272.256 128.128 275.507 131.439L355.806 213.333L8.53349 213.333C3.82349 213.333 0.000488281 217.156 0.000488281 221.866L0.000488281 290.133C0.000488281 294.843 3.82349 298.667 8.53349 298.667L355.806 298.667L275.507 380.56C272.264 383.871 272.256 389.162 275.49 392.481L322.876 441.147C324.48 442.802 326.682 443.733 328.986 443.733C331.29 443.733 333.492 442.794 335.096 441.147L509.577 261.947C511.19 260.292 512 258.141 512 255.999C512 253.849 511.189 251.707 509.577 250.043L335.096 70.8435C333.492 69.1965 331.29 68.2665 328.986 68.2665C326.682 68.2665 324.48 69.1965 322.876 70.8435Z" fill="black"/>
</g>
<defs>
<clipPath id="clip0">
<rect width="512" height="512" fill="white" transform="translate(512 512) rotate(-180)"/>
</clipPath>
</defs>
</svg>
