<svg width="512" height="512" viewBox="0 0 512 512" fill="none" xmlns="http://www.w3.org/2000/svg">
<path d="M70.843 189.124L119.509 236.51C122.828 239.753 128.128 239.744 131.439 236.493L213.333 156.194L213.333 503.467C213.333 508.177 217.156 512 221.866 512H290.133C294.843 512 298.666 508.177 298.666 503.467L298.666 156.194L380.56 236.493C383.871 239.736 389.162 239.744 392.481 236.51L441.147 189.124C442.802 187.52 443.733 185.318 443.733 183.014C443.733 180.71 442.794 178.508 441.147 176.904L261.947 2.423C260.292 0.809998 258.141 0 255.999 0C253.849 0 251.707 0.811005 250.043 2.423L70.843 176.904C69.196 178.508 68.266 180.71 68.266 183.014C68.266 185.318 69.196 187.52 70.843 189.124Z" fill="black"/>
</svg>
